<?xml version="1.0" standalone="no"?>


<svg xmlns="http://www.w3.org/2000/svg" viewBox="0 0 1440 3200">

<radialGradient id="linear-gradient">
  <stop offset="0%" stop-color="#3C8291"/>
  <stop offset="100%" stop-color="#00B5AD"/>
</radialGradient>


<!-- <path fill="#0099ff" fill-opacity="1" d="M0,32L60,48C120,64,240,96,360,117.3C480,139,600,149,720,176C840,203,960,245,1080,266.7C1200,288,1320,288,1380,288L1440,288L1440,0L1380,0C1320,0,1200,0,1080,0C960,0,840,0,720,0C600,0,480,0,360,0C240,0,120,0,60,0L0,0Z"></path> -->

<path fill="url(#linear-gradient)" fill-opacity="1" d="M0,32L48,48C96,64,192,96,288,117.3C384,139,480,149,576,170.7C672,192,768,224,864,234.7C960,245,1056,235,1152,240C1248,245,1344,267,1392,277.3L1440,288L1440,0L1392,0C1344,0,1248,0,1152,0C1056,0,960,0,864,0C768,0,672,0,576,0C480,0,384,0,288,0C192,0,96,0,48,0L0,0Z"></path></svg>